<svg xmlns="http://www.w3.org/2000/svg" viewBox="0 0 1200 720" fill="none">
  <path
    fill="#000000"
    d="M259 474
      C220 474 188 442 188 402
      C188 364 215 335 251 330
      C262 260 321 208 395 208
      C442 208 485 227 514 261
      C550 230 596 214 646 214
      C722 214 788 257 819 324
      C854 318 888 325 916 344
      C953 369 972 406 972 448
      C972 495 939 533 894 542
      C862 598 803 632 736 632
      C680 632 631 610 596 571
      C558 608 508 632 452 632
      C380 632 317 593 287 533
      C278 530 268 528 259 528
      C275 512 284 495 286 474
      Z"
  />
</svg>
