<svg xmlns="http://www.w3.org/2000/svg" viewBox="0 0 1200 720" fill="none">
  <path
    fill="#000000"
    d="M600 110
      C626 176 664 232 716 284
      C764 332 806 366 850 398
      C808 404 766 418 726 438
      C690 456 654 480 624 510
      C664 518 706 532 742 550
      C776 567 810 591 836 618
      C758 612 685 610 600 610
      C515 610 442 612 364 618
      C390 591 424 567 458 550
      C494 532 536 518 576 510
      C546 480 510 456 474 438
      C434 418 392 404 350 398
      C394 366 436 332 484 284
      C536 232 574 176 600 110
      Z"
  />
</svg>
